<svg width="73" height="73" viewBox="0 0 73 73" fill="none" xmlns="http://www.w3.org/2000/svg">
<circle cx="36.5" cy="36.5" r="35" fill="#0D1426" stroke="#16FFE2" stroke-width="3"/>
<g filter="url(#filter0_i)">
<path d="M46.1812 30.872C49.9892 32.088 51.8932 35.208 51.8932 40.232C51.8932 44.424 50.1012 48.536 46.5172 52.568C42.9652 56.568 38.0692 58.568 31.8292 58.568C26.9332 58.568 23.7492 57.144 22.2772 54.296C21.7652 53.336 21.5092 52.36 21.5092 51.368C21.5092 50.344 21.7652 49.304 22.2772 48.248C23.2372 46.2 24.6292 45.176 26.4532 45.176C26.6132 45.176 26.7252 45.272 26.7892 45.464C26.8532 45.624 26.8372 45.8 26.7412 45.992C26.6772 46.184 26.5652 46.28 26.4052 46.28C25.3172 46.28 24.4052 46.984 23.6692 48.392C23.1572 49.32 22.9012 50.2 22.9012 51.032C22.9012 51.864 23.0932 52.664 23.4772 53.432C24.5972 55.608 27.0932 56.696 30.9652 56.696C35.8292 56.696 40.0532 54.648 43.6372 50.552C46.4212 47.416 48.1332 43.976 48.7732 40.232C48.9332 39.336 49.0132 38.504 49.0132 37.736C49.0132 35.528 48.3572 33.88 47.0452 32.792C46.3412 32.216 45.4772 31.88 44.4532 31.784C42.7252 32.52 40.8692 32.888 38.8852 32.888C38.6612 32.888 38.5492 32.68 38.5492 32.264C38.5492 31.816 38.6612 31.592 38.8852 31.592C42.1172 31.592 44.9492 30.072 47.3812 27.032C49.1732 24.76 50.1332 22.536 50.2612 20.36C50.1972 18.44 49.4452 17.432 48.0052 17.336C46.4372 17.336 44.7572 18.456 42.9652 20.696C41.1732 22.936 39.5572 25.656 38.1172 28.856C36.6772 32.056 35.3492 35.336 34.1332 38.696C32.9492 42.024 32.0212 44.888 31.3492 47.288C30.6772 49.656 30.3412 51.048 30.3412 51.464C30.3412 51.88 30.1172 52.088 29.6692 52.088C28.7092 52.088 28.2292 50.808 28.2292 48.248C28.2292 42.072 28.9172 36.072 30.2932 30.248C31.7012 24.424 33.2532 20.536 34.9492 18.584C30.3732 19.224 26.6612 20.84 23.8132 23.432C22.1812 24.872 21.3652 26.44 21.3652 28.136C21.3652 28.968 21.6852 29.384 22.3252 29.384C22.1972 29.832 21.8452 30.056 21.2692 30.056C20.6932 30.056 20.1812 29.832 19.7332 29.384C19.3172 28.936 19.1092 28.312 19.1092 27.512C19.1092 25.624 20.2452 23.88 22.5172 22.28C24.8212 20.648 27.3012 19.448 29.9572 18.68C32.6132 17.88 34.8692 17.48 36.7252 17.48C37.2372 17.48 37.4932 17.736 37.4932 18.248C35.4132 23.08 33.5252 30.136 31.8292 39.416H32.2132C34.0692 33.624 36.2612 28.44 38.7892 23.864C40.1332 21.4 41.6212 19.464 43.2532 18.056C44.8852 16.616 46.5492 15.896 48.2452 15.896C50.9332 15.896 52.5332 16.984 53.0452 19.16C53.1412 19.608 53.1892 20.088 53.1892 20.6C53.1892 22.328 52.5172 24.184 51.1732 26.168C49.8612 28.12 48.1972 29.688 46.1812 30.872Z" fill="#16FFE2"/>
</g>
<defs>
<filter id="filter0_i" x="19.1093" y="15.896" width="34.08" height="44.672" filterUnits="userSpaceOnUse" color-interpolation-filters="sRGB">
<feFlood flood-opacity="0" result="BackgroundImageFix"/>
<feBlend mode="normal" in="SourceGraphic" in2="BackgroundImageFix" result="shape"/>
<feColorMatrix in="SourceAlpha" type="matrix" values="0 0 0 0 0 0 0 0 0 0 0 0 0 0 0 0 0 0 127 0" result="hardAlpha"/>
<feOffset dy="2"/>
<feGaussianBlur stdDeviation="1"/>
<feComposite in2="hardAlpha" operator="arithmetic" k2="-1" k3="1"/>
<feColorMatrix type="matrix" values="0 0 0 0 0 0 0 0 0 0 0 0 0 0 0 0 0 0 0.1 0"/>
<feBlend mode="normal" in2="shape" result="effect1_innerShadow"/>
</filter>
</defs>
</svg>
